<svg id="visual" viewBox="0 0 900 300" width="900" height="300" xmlns="http://www.w3.org/2000/svg" xmlns:xlink="http://www.w3.org/1999/xlink" version="1.1"><rect x="0" y="0" width="900" height="300" fill="#a046f3"></rect><path d="M0 132L25 140.2C50 148.3 100 164.7 150 176.8C200 189 250 197 300 186.3C350 175.7 400 146.3 450 131C500 115.7 550 114.3 600 124.5C650 134.7 700 156.3 750 156.8C800 157.3 850 136.7 875 126.3L900 116L900 301L875 301C850 301 800 301 750 301C700 301 650 301 600 301C550 301 500 301 450 301C400 301 350 301 300 301C250 301 200 301 150 301C100 301 50 301 25 301L0 301Z" fill="#9a62cf"></path><path d="M0 219L25 207.8C50 196.7 100 174.3 150 175.5C200 176.7 250 201.3 300 205.5C350 209.7 400 193.3 450 187.3C500 181.3 550 185.7 600 180C650 174.3 700 158.7 750 160.5C800 162.3 850 181.7 875 191.3L900 201L900 301L875 301C850 301 800 301 750 301C700 301 650 301 600 301C550 301 500 301 450 301C400 301 350 301 300 301C250 301 200 301 150 301C100 301 50 301 25 301L0 301Z" fill="#b588dc"></path><path d="M0 195L25 195.7C50 196.3 100 197.7 150 201.2C200 204.7 250 210.3 300 216.3C350 222.3 400 228.7 450 232.2C500 235.7 550 236.3 600 234.8C650 233.3 700 229.7 750 230.5C800 231.3 850 236.7 875 239.3L900 242L900 301L875 301C850 301 800 301 750 301C700 301 650 301 600 301C550 301 500 301 450 301C400 301 350 301 300 301C250 301 200 301 150 301C100 301 50 301 25 301L0 301Z" fill="#cfafe8"></path><path d="M0 262L25 257.7C50 253.3 100 244.7 150 238.8C200 233 250 230 300 229C350 228 400 229 450 226.5C500 224 550 218 600 219.8C650 221.7 700 231.3 750 239.8C800 248.3 850 255.7 875 259.3L900 263L900 301L875 301C850 301 800 301 750 301C700 301 650 301 600 301C550 301 500 301 450 301C400 301 350 301 300 301C250 301 200 301 150 301C100 301 50 301 25 301L0 301Z" fill="#e7d7f4"></path><path d="M0 277L25 278.5C50 280 100 283 150 284.8C200 286.7 250 287.3 300 282.3C350 277.3 400 266.7 450 263.8C500 261 550 266 600 265.5C650 265 700 259 750 254.2C800 249.3 850 245.7 875 243.8L900 242L900 301L875 301C850 301 800 301 750 301C700 301 650 301 600 301C550 301 500 301 450 301C400 301 350 301 300 301C250 301 200 301 150 301C100 301 50 301 25 301L0 301Z" fill="#ffffff"></path></svg>