<svg id="visual" viewBox="0 0 960 300" width="960" height="300" xmlns="http://www.w3.org/2000/svg" xmlns:xlink="http://www.w3.org/1999/xlink" version="1.1"><rect x="0" y="0" width="960" height="300" fill="#a046f3"></rect><path d="M0 146L22.8 146.2C45.7 146.3 91.3 146.7 137 148C182.7 149.3 228.3 151.7 274 140.2C319.7 128.7 365.3 103.3 411.2 91.2C457 79 503 80 548.8 79.7C594.7 79.3 640.3 77.7 686 79.3C731.7 81 777.3 86 823 92.3C868.7 98.7 914.3 106.3 937.2 110.2L960 114L960 301L937.2 301C914.3 301 868.7 301 823 301C777.3 301 731.7 301 686 301C640.3 301 594.7 301 548.8 301C503 301 457 301 411.2 301C365.3 301 319.7 301 274 301C228.3 301 182.7 301 137 301C91.3 301 45.7 301 22.8 301L0 301Z" fill="#9a62cf"></path><path d="M0 138L22.8 145.7C45.7 153.3 91.3 168.7 137 164.7C182.7 160.7 228.3 137.3 274 133.7C319.7 130 365.3 146 411.2 146.7C457 147.3 503 132.7 548.8 125.7C594.7 118.7 640.3 119.3 686 119C731.7 118.7 777.3 117.3 823 128.7C868.7 140 914.3 164 937.2 176L960 188L960 301L937.2 301C914.3 301 868.7 301 823 301C777.3 301 731.7 301 686 301C640.3 301 594.7 301 548.8 301C503 301 457 301 411.2 301C365.3 301 319.7 301 274 301C228.3 301 182.7 301 137 301C91.3 301 45.7 301 22.8 301L0 301Z" fill="#b588dc"></path><path d="M0 163L22.8 162.8C45.7 162.7 91.3 162.3 137 168.3C182.7 174.3 228.3 186.7 274 192.5C319.7 198.3 365.3 197.7 411.2 197.3C457 197 503 197 548.8 196.3C594.7 195.7 640.3 194.3 686 197.3C731.7 200.3 777.3 207.7 823 206.7C868.7 205.7 914.3 196.3 937.2 191.7L960 187L960 301L937.2 301C914.3 301 868.7 301 823 301C777.3 301 731.7 301 686 301C640.3 301 594.7 301 548.8 301C503 301 457 301 411.2 301C365.3 301 319.7 301 274 301C228.3 301 182.7 301 137 301C91.3 301 45.7 301 22.8 301L0 301Z" fill="#cfafe8"></path><path d="M0 236L22.8 229.8C45.7 223.7 91.3 211.3 137 207.5C182.7 203.7 228.3 208.3 274 215.8C319.7 223.3 365.3 233.7 411.2 237.2C457 240.7 503 237.3 548.8 229C594.7 220.7 640.3 207.3 686 207.3C731.7 207.3 777.3 220.7 823 225C868.7 229.3 914.3 224.7 937.2 222.3L960 220L960 301L937.2 301C914.3 301 868.7 301 823 301C777.3 301 731.7 301 686 301C640.3 301 594.7 301 548.8 301C503 301 457 301 411.2 301C365.3 301 319.7 301 274 301C228.3 301 182.7 301 137 301C91.3 301 45.7 301 22.8 301L0 301Z" fill="#e7d7f4"></path><path d="M0 270L22.8 265.5C45.7 261 91.3 252 137 252C182.7 252 228.3 261 274 266C319.7 271 365.3 272 411.2 268.8C457 265.7 503 258.3 548.8 253.3C594.7 248.3 640.3 245.7 686 245.7C731.7 245.7 777.3 248.3 823 251.5C868.7 254.7 914.3 258.3 937.2 260.2L960 262L960 301L937.2 301C914.3 301 868.7 301 823 301C777.3 301 731.7 301 686 301C640.3 301 594.7 301 548.8 301C503 301 457 301 411.2 301C365.3 301 319.7 301 274 301C228.3 301 182.7 301 137 301C91.3 301 45.7 301 22.8 301L0 301Z" fill="#ffffff"></path></svg>