<svg id="visual" viewBox="0 0 960 300" width="960" height="300" xmlns="http://www.w3.org/2000/svg" xmlns:xlink="http://www.w3.org/1999/xlink" version="1.1"><rect x="0" y="0" width="960" height="300" fill="#a046f3"></rect><path d="M0 193L22.8 188.3C45.7 183.7 91.3 174.3 137 176.8C182.7 179.3 228.3 193.7 274 182.5C319.7 171.3 365.3 134.7 411.2 124.8C457 115 503 132 548.8 143.8C594.7 155.7 640.3 162.3 686 153.8C731.7 145.3 777.3 121.7 823 115.3C868.7 109 914.3 120 937.2 125.5L960 131L960 301L937.2 301C914.3 301 868.7 301 823 301C777.3 301 731.7 301 686 301C640.3 301 594.7 301 548.8 301C503 301 457 301 411.2 301C365.3 301 319.7 301 274 301C228.3 301 182.7 301 137 301C91.3 301 45.7 301 22.8 301L0 301Z" fill="#ffffff" stroke-linecap="round" stroke-linejoin="miter"></path></svg>